<?xml version="1.0" standalone="no"?>
<!DOCTYPE svg PUBLIC "-//W3C//DTD SVG 20010904//EN"
 "http://www.w3.org/TR/2001/REC-SVG-20010904/DTD/svg10.dtd">
<svg version="1.0" xmlns="http://www.w3.org/2000/svg"
 width="500.000000pt" height="500.000000pt" viewBox="0 0 500.000000 500.000000"
 preserveAspectRatio="xMidYMid meet">
<metadata>
Created by potrace 1.14, written by Peter Selinger 2001-2017
</metadata>
<g transform="translate(0.000000,500.000000) scale(0.100000,-0.100000)"
fill="#000000" stroke="none">
<path d="M1934 4200 c-15 -36 -35 -83 -45 -105 -9 -22 -133 -319 -274 -660
-141 -341 -265 -639 -276 -662 -10 -24 -19 -46 -19 -49 0 -3 -7 -20 -15 -37
-16 -35 -186 -444 -215 -517 -22 -56 -168 -408 -180 -435 -5 -11 -43 -102 -85
-203 l-76 -182 23 -23 c13 -12 68 -71 122 -132 55 -60 105 -115 110 -120 6 -6
33 -35 60 -65 27 -30 76 -83 109 -118 l60 -63 209 3 209 3 136 343 137 342
590 0 591 0 35 -90 35 -89 215 -160 c118 -88 274 -203 345 -256 l130 -96 268
2 c147 1 267 3 267 4 0 2 -11 29 -25 61 -40 92 -41 94 -75 179 -18 44 -45 109
-60 145 -15 36 -87 209 -160 385 -72 176 -140 339 -151 362 -10 24 -19 45 -19
48 0 3 -9 24 -19 48 -11 23 -52 121 -91 217 -39 96 -80 194 -91 217 -10 24
-19 45 -19 48 0 3 -9 27 -21 53 -12 26 -25 56 -30 67 -12 28 -154 372 -199
482 -21 51 -43 105 -50 120 -7 15 -56 132 -109 260 l-96 232 -305 215 c-168
118 -309 218 -315 223 -5 4 -29 21 -53 37 l-42 29 -255 1 -254 1 -27 -65z
m507 1 c4 0 19 -31 34 -68 15 -38 34 -84 42 -103 24 -55 28 -66 94 -225 33
-82 70 -169 80 -192 10 -24 19 -45 19 -48 0 -3 9 -24 19 -48 11 -23 74 -175
140 -337 67 -162 126 -304 130 -315 5 -11 16 -36 24 -55 9 -19 25 -60 37 -90
12 -30 28 -70 36 -87 30 -70 45 -107 158 -383 65 -157 121 -294 126 -305 27
-57 220 -528 222 -542 3 -16 -15 -17 -186 -18 -179 -1 -189 0 -201 20 -7 11
-57 130 -110 265 -53 135 -105 263 -115 285 -9 22 -23 57 -31 78 -7 20 -15 37
-19 38 -8 0 -1391 1 -1421 0 -22 -1 -29 -11 -59 -83 -18 -46 -41 -102 -52
-125 -10 -23 -18 -45 -18 -48 0 -3 -8 -25 -19 -48 -10 -23 -46 -114 -81 -202
-35 -88 -67 -165 -71 -170 -4 -6 -81 -10 -196 -10 -159 1 -188 3 -186 15 1 13
71 187 118 295 7 17 48 113 89 215 42 102 81 194 85 205 5 11 13 31 19 45 17
38 255 613 334 805 38 94 76 184 83 200 12 28 69 166 254 615 40 96 79 189 86
205 7 17 22 53 33 80 11 28 29 70 40 95 l19 45 219 -1 c120 -1 222 -2 225 -3z"/>
<path d="M1960 3238 c-128 -310 -243 -585 -255 -613 -59 -134 -85 -199 -85
-211 0 -12 99 -14 604 -14 l605 0 -56 133 c-30 72 -63 152 -73 177 -10 25
-113 275 -230 555 -117 281 -214 516 -217 523 -3 6 -17 12 -32 12 -26 0 -34
-17 -261 -562z m598 -331 c35 -83 64 -156 66 -162 3 -12 5 -14 68 -164 26 -63
46 -117 43 -119 -3 -3 -409 -6 -486 -3 -14 1 -10 18 25 99 23 53 80 188 126
300 47 111 87 202 90 202 3 0 33 -69 68 -153z"/>
</g>
</svg>
